*********** ****    ****      ***      ******** *********** ****    *** **********
          *+*     +*+*+* *+*+*+   *+* *+*   *+*    *+*    *+*     *+*+*   *+* *+*        
          +*+     +*+ +*+*+ +*+  +*+   +*+  +*+           +*+     *+*+*+  +*+ +*+        
          +$+     +$+  +*+  +$+ +$++*++$++* *$*           +$+     +$+ +*+ +$+ +$++*++$  
          +$+     +$+       +$+ +$+     +$+ +$+   +$+$    +$+     +$+  +$+$+$ +$+        
          $+$     $+$       $+$ $+$     $+$ $+$    $+$    $+$     $+$   $+$+$ $+$        
      $$$$$$$$$$$ $$$       $$$ $$$     $$$  $$$$$$$$ $$$$$$$$$$$ $$$    $$$$ $$$$$$$$$$    
                                               



                          Another Fine Release Brought to you from - IMAGiNE                  
                                               

********************************************************************************************************************                                
                            Insidious 2011 720p RC BDRiP XViD AC3 - IMAGiNE
********************************************************************************************************************



Ripper...........:IMAGiNE                            IMDB Rating.......:7.1/10                           VideoCodec.......:XVID                               Release Date......: 18/06/11
Audio Codec.......: AC3                            Theatre Date......: 01/04/11
AudioBitrate.....:448                                Runtime.......: 1h 42mn
Subtitles.........:NIL                               Language..........: ENGLISH
Resolution......:1280x528                           IMDb URL..........: [url]http://www.imdb.com/title/tt1591095/[/url]


[color=yellow][u][b]DETAILS:[/b][/u][/color]

Video
ID                               : 0
Format                           : MPEG-4 Visual
Format profile                   : Advanced Simple@L5
Format settings, BVOP            : 2
Format settings, QPel            : No
Format settings, GMC             : No warppoints
Format settings, Matrix          : Default (MPEG)
Muxing mode                      : Packed bitstream
Codec ID                         : XVID
Codec ID/Hint                    : XviD
Duration                         : 1h 42mn
Bit rate                         : 3 067 Kbps
Width                            : 1 280 pixels
Height                           : 528 pixels
Display aspect ratio             : 2.40:1
Frame rate                       : 23.976 fps
Color space                      : YUV
Chroma subsampling               : 4:2:0
Bit depth                        : 8 bits
Scan type                        : Progressive
Compression mode                 : Lossy
Bits/(Pixel*Frame)               : 0.189
Stream size                      : 2.19 GiB (87%)
Writing library                  : XviD 61

Audio
ID                               : 1
Format                           : AC-3
Format/Info                      : Audio Coding 3
Mode extension                   : CM (complete main)
Codec ID                         : 2000
Duration                         : 1h 42mn
Bit rate mode                    : Constant
Bit rate                         : 448 Kbps
Channel(s)                       : 6 channels
Channel positions                : Front: L C R, Side: L R, LFE
Sampling rate                    : 48.0 KHz
Bit depth                        : 16 bits
Compression mode                 : Lossy
Stream size                      : 328 MiB (13%)
Alignment                        : Aligned on interleaves
Interleave, duration             : 42 ms (1.00 video frame)




[color=yellow][u][b]SOURCES:[/b][/u][/color]

VIDEO: ..................... ASTRAL RUSSIAN 1080p
AUDIO: ..................... ASTRAL RUSSIAN 1080p Thanx Mate

[color=yellow][u][b]NOTES:[/b][/u][/color]

IMAGiNE bringing you another release..........
Insidious 720p RC BDRiP.......
Ok here we are with a very nice 720p of Insidious
Source files were awesome and came with an english track
So we made a script to crop, resize and sharpen
Audio was converted from DTS to AC3
and remuxed to our encode........
Enjoy Folks!








GREETS:

FLAWL3SS,ViSiON,FUSiON,Rx,SecretMyth,BirdFlu,ELEKTRI4KA,SERENiTY and Autotron
And to all the other p2p grps past and present


Looking for these,syncers,cammers,silver supplier,Audio.....Have anything to offer????......
Contact us imaginegroup@hushmail.com